PathFileType	4	(X/Y/Z)	C:/Users/opensim2020/Desktop/walking_exp_matlab/subject06_walking15_straight_04.trc																																																																																																																																											
DataRate	CameraRate	NumFrames	NumMarkers	Units	OrigDataRate	OrigDataStartFrame	OrigNumFrames																																																																																																																																							
100	100	5	47	mm	100	2940	157																																																																																																																																							
Frame#	Time	LFHD			RFHD			LBHD			RBHD			C7			T10			CLAV			STRN			RBAK			LSHO			LUPA			LELB			LFRM			LWRA			LWRB			LFIN			RSHO			RUPA			RELB			RFRM			RWRA			RWRB			RFIN			LASI			RASI			LPSI			RPSI			LTHI			LKNE			LTIB			LANK			LHEE			LTOE			RTHI			RKNE			RTIB			RANK			RHEE			RTOE			*39			*40			*41			*42			*43			*44			*45			*46		
		X1	Y1	Z1	X2	Y2	Z2	X3	Y3	Z3	X4	Y4	Z4	X5	Y5	Z5	X6	Y6	Z6	X7	Y7	Z7	X8	Y8	Z8	X9	Y9	Z9	X10	Y10	Z10	X11	Y11	Z11	X12	Y12	Z12	X13	Y13	Z13	X14	Y14	Z14	X15	Y15	Z15	X16	Y16	Z16	X17	Y17	Z17	X18	Y18	Z18	X19	Y19	Z19	X20	Y20	Z20	X21	Y21	Z21	X22	Y22	Z22	X23	Y23	Z23	X24	Y24	Z24	X25	Y25	Z25	X26	Y26	Z26	X27	Y27	Z27	X28	Y28	Z28	X29	Y29	Z29	X30	Y30	Z30	X31	Y31	Z31	X32	Y32	Z32	X33	Y33	Z33	X34	Y34	Z34	X35	Y35	Z35	X36	Y36	Z36	X37	Y37	Z37	X38	Y38	Z38	X39	Y39	Z39	X40	Y40	Z40	X41	Y41	Z41	X42	Y42	Z42	X43	Y43	Z43	X44	Y44	Z44	X45	Y45	Z45	X46	Y46	Z46	X47	Y47	Z47
																																																																																																																																														
79	0.78	-186.4915	1627.18066	925.61554	-161.39357	1623.92188	1055.6543	-319.73264	1580.57935	954.49884	-292.98041	1582.26697	1081.32104	-316.81003	1423.45691	1013.74609	-352.63953	1093.68994	1026.42871	-207.57433	1344.86377	1003.76593	-169.26192	1172.62244	1004.60193	-386.18948	1258.08569	1105.37415	-284.92355	1371.33276	848.41791	-346.4259	1177.45544	790.9812	-386.73911	1071.62512	788.16425	-412.87683	924.56812	762.68561	-375.9187	795.17657	783.31976	-444.69479	809.29352	770.06848	-430.18219	720.45355	756.87653	-237.82719	1381.99365	1167.84827	-253.28674	1189.07275	1270.47852	-223.05334	1075.36938	1289.04688	-143.8205	990.729	1293.48511	-18.4284	926.18024	1233.82239	-50.64221	893.14014	1283.03076	25.17677	859.67871	1269.67017	-164.26511	940.54706	920.5946	-178.67542	941.32147	1139.82788	-324.86307	961.01581	935.97369	-328.4595	965.93115	1103.57971	-168.55093	627.82965	847.56073	-110.87352	478.8161	879.47925	-72.06106	226.19896	888.43988	-17.2607	62.25171	928.08856	-47.94625	41.45653	977.51495	129.62906	65.84659	923.64496	-293.7218	611.72351	1182.44971	-324.44815	487.73822	1162.74146	-482.25653	265.19336	1154.9259	-578.24615	104.50866	1107.52356	-624.87146	96.15198	1063.03821	-444.97134	29.26208	1104.49072	-271.26031	1674.8457	1000.44379	NaN	NaN	NaN	NaN	NaN	NaN	NaN	NaN	NaN	NaN	NaN	NaN	NaN	NaN	NaN	NaN	NaN	NaN	NaN	NaN	NaN
80	0.79	-175.00389	1627.1665	924.758	-150.14142	1623.86499	1054.93164	-308.2081	1580.2168	953.29974	-281.74707	1581.84265	1080.20911	-305.52252	1423.11646	1012.479	-340.00266	1093.13757	1024.96338	-195.84486	1344.68726	1002.65265	-157.03905	1172.40088	1003.36707	-374.66583	1257.26013	1103.5741	-272.70181	1371.1178	847.01257	-334.1312	1177.13354	789.6767	-374.67896	1071.39087	786.9234	-401.47952	924.4397	761.62762	-365.61459	794.82837	782.74426	-434.18274	809.28143	769.10236	-420.23233	720.39429	756.20148	-226.71761	1381.59277	1166.72412	-242.95676	1188.59802	1269.00562	-213.5925	1074.71765	1287.66101	-134.57384	989.95337	1292.3324	-9.06361	925.36652	1233.02344	-41.50143	892.23114	1282.01428	34.30241	858.73914	1268.9115	-151.65941	940.45483	919.49622	-166.19083	940.89514	1138.72009	-311.44067	960.87714	933.88208	-315.95255	965.4455	1102.1781	-154.86365	628.47076	847.85815	-97.75229	479.64697	878.45111	-62.73082	226.29726	888.92871	-14.46153	62.10071	927.73322	-45.98759	43.18719	977.39697	133.08989	55.33939	925.33051	-281.05917	610.85229	1181.66089	-311.28561	486.75458	1162.25696	-473.9577	267.6124	1155.26221	-574.72522	109.72778	1108.78491	-621.69086	103.33189	1064.69543	-444.75214	29.33212	1104.50476	-260.095	1674.50659	999.49957	NaN	NaN	NaN	NaN	NaN	NaN	NaN	NaN	NaN	NaN	NaN	NaN	NaN	NaN	NaN	NaN	NaN	NaN	NaN	NaN	NaN
81	0.8	-163.55237	1627.91895	923.91382	-139.0257	1624.5658	1054.15137	-296.68848	1580.44897	952.09802	-270.53214	1582.02002	1079.03052	-293.93158	1423.4729	1010.78564	-327.63528	1093.14832	1023.85693	-184.0495	1345.20825	1001.4859	-145.14851	1172.6814	1002.09546	-363.02704	1256.92798	1101.44543	-260.52847	1371.28003	845.43634	-321.58771	1177.06592	788.22626	-362.20554	1071.32581	785.50311	-389.50171	924.44281	760.44867	-354.50421	794.69794	782.151	-422.92368	809.66016	768.02222	-409.8786	720.57446	755.2403	-215.51447	1381.63037	1165.69836	-232.89032	1188.33557	1267.58997	-204.20821	1074.3219	1286.32227	-125.66991	989.18854	1291.11194	-0.16676	924.29498	1232.28503	-32.88752	891.12573	1281.03455	42.82543	857.44116	1268.23132	-138.96605	940.97919	918.21533	-153.52406	940.76373	1137.47498	-299.05234	961.69659	932.61804	-303.21448	965.4068	1101.10547	-141.22026	629.98822	847.74969	-84.72844	481.3428	877.284	-53.57158	227.48135	887.49835	-10.87728	61.88742	926.77429	-43.68492	44.66991	976.20068	136.40952	49.36591	926.07825	-267.59421	610.24658	1180.78845	-297.27832	485.93552	1161.63367	-465.17224	270.72858	1155.15344	-570.06653	115.52728	1109.81335	-617.09503	111.2616	1065.89905	-444.32404	29.29309	1104.37317	-248.99306	1674.85144	998.46759	NaN	NaN	NaN	NaN	NaN	NaN	NaN	NaN	NaN	NaN	NaN	NaN	NaN	NaN	NaN	NaN	NaN	NaN	NaN	NaN	NaN
82	0.81	-152.07458	1629.21143	923.06128	-127.87334	1625.74207	1053.24084	-285.2186	1581.37695	950.85736	-259.21518	1582.84216	1077.8678	-282.34158	1424.56433	1009.49548	-315.37415	1093.74829	1022.79633	-172.46031	1346.20325	1000.30646	-133.16634	1173.66309	1000.698	-351.47174	1257.24036	1099.44006	-248.29565	1371.9657	843.85529	-308.65897	1177.34692	786.61072	-349.25497	1071.5387	783.93195	-376.89755	924.71027	759.10883	-342.60794	794.78003	781.53479	-410.78867	810.10211	766.84326	-397.97397	721.00421	754.66254	-204.21133	1382.18884	1164.72229	-222.83659	1188.54883	1266.11926	-195.0054	1074.33801	1284.97644	-117.08067	988.57275	1289.85547	8.17369	922.94775	1231.5365	-24.90909	889.85767	1280.09985	50.59545	855.93713	1267.65942	-126.10881	942.28113	916.71704	-140.92912	941.26703	1136.03467	-287.39951	963.28918	932.21509	-290.51349	965.73987	1100.3291	-127.50912	632.61719	847.38965	-71.3571	483.56848	876.09314	-45.19579	228.95697	885.35352	-6.98284	62.08097	925.7608	-41.64839	46.82105	974.80627	139.70163	45.59517	925.62964	-253.43814	610.0116	1179.89624	-282.06192	485.36081	1161.02234	-455.24121	274.40933	1154.93665	-564.73401	122.43794	1110.65613	-611.21143	120.18111	1066.59619	-443.75876	29.29388	1104.11072	-237.91438	1675.87512	997.46173	NaN	NaN	NaN	NaN	NaN	NaN	NaN	NaN	NaN	NaN	NaN	NaN	NaN	NaN	NaN	NaN	NaN	NaN	NaN	NaN	NaN
83	0.82	-140.54265	1630.70032	922.15479	-116.63776	1627.17139	1052.42078	-273.64932	1582.78333	949.61884	-248.09149	1584.20959	1076.7124	-270.49597	1426.00134	1008.05859	-303.16223	1094.88977	1021.74194	-160.84955	1347.60803	999.09625	-121.27454	1175.23987	999.22272	-339.70111	1258.17664	1097.75073	-235.96736	1373.1488	842.35571	-295.37463	1178.04602	784.98126	-335.61856	1072.0564	782.22375	-363.35867	925.28625	757.62158	-329.83011	795.32129	780.96283	-397.75943	810.84387	765.34033	-385.54788	721.64026	753.61713	-192.70523	1383.27539	1163.71228	-213.01068	1189.39758	1264.42944	-185.81662	1074.89478	1283.52637	-108.76468	988.1806	1288.53662	16.0295	921.36273	1230.82507	-17.93873	888.44135	1278.91687	57.55342	854.03802	1267.20044	-113.38097	944.33289	915.18518	-128.10478	942.323	1134.37927	-274.93729	964.96368	931.58417	-277.99393	966.46741	1099.69824	-113.81488	635.80481	846.90613	-58.237	485.89709	874.58429	-37.42046	230.28148	883.39752	-3.87483	62.31593	924.93616	-39.6993	48.20919	973.61646	142.00418	42.09979	924.92615	-238.6218	609.97876	1178.90906	-265.67584	484.98499	1160.71667	-444.12546	278.59976	1154.67126	-558.00342	129.96535	1110.64124	-603.86646	130.11932	1066.40369	-443.4711	29.45709	1103.6366	-226.51263	1677.27417	996.39087	NaN	NaN	NaN	NaN	NaN	NaN	NaN	NaN	NaN	NaN	NaN	NaN	NaN	NaN	NaN	NaN	NaN	NaN	NaN	NaN	NaN
